<svg xmlns="http://www.w3.org/2000/svg" width="500" height="500"><rect width="500" height="500" rx="18" fill="#FFFDF5"/><text x="250" y="30" text-anchor="middle" font-family="Arial" font-size="18" font-weight="700" fill="#3B2F14">Repository Languages</text><polygon points="250.0,218.0 275.0,230.0 281.2,257.1 263.9,278.8 236.1,278.8 218.8,257.1 225.0,230.0" fill="none" stroke="#8A7A5A" stroke-opacity=".45"/><polygon points="250.0,186.0 300.0,210.1 312.4,264.2 277.8,307.7 222.2,307.7 187.6,264.2 200.0,210.1" fill="none" stroke="#8A7A5A" stroke-opacity=".45"/><polygon points="250.0,154.0 325.1,190.1 343.6,271.4 291.7,336.5 208.3,336.5 156.4,271.4 174.9,190.1" fill="none" stroke="#8A7A5A" stroke-opacity=".45"/><polygon points="250.0,122.0 350.1,170.2 374.8,278.5 305.5,365.3 194.5,365.3 125.2,278.5 149.9,170.2" fill="none" stroke="#8A7A5A" stroke-opacity=".45"/><polygon points="250.0,90.0 375.1,150.2 406.0,285.6 319.4,394.2 180.6,394.2 94.0,285.6 124.9,150.2" fill="none" stroke="#8A7A5A" stroke-opacity=".45"/><line x1="250" y1="250" x2="250.0" y2="90.0" stroke="#8A7A5A" stroke-opacity=".5"/><line x1="250" y1="250" x2="375.1" y2="150.2" stroke="#8A7A5A" stroke-opacity=".5"/><line x1="250" y1="250" x2="406.0" y2="285.6" stroke="#8A7A5A" stroke-opacity=".5"/><line x1="250" y1="250" x2="319.4" y2="394.2" stroke="#8A7A5A" stroke-opacity=".5"/><line x1="250" y1="250" x2="180.6" y2="394.2" stroke="#8A7A5A" stroke-opacity=".5"/><line x1="250" y1="250" x2="94.0" y2="285.6" stroke="#8A7A5A" stroke-opacity=".5"/><line x1="250" y1="250" x2="124.9" y2="150.2" stroke="#8A7A5A" stroke-opacity=".5"/><polygon points="250.0,90.0 355.1,166.2 367.0,276.7 289.6,332.2 216.0,320.6 206.3,260.0 230.0,234.0" fill="#F5C542" fill-opacity=".18" stroke="#F5C542" stroke-width="2"/><circle cx="250.0" cy="90.0" r="4" fill="#F5C542"/><text x="250.0" y="81.0" text-anchor="middle" font-family="Arial" font-size="10" fill="#3B2F14">100</text><circle cx="355.1" cy="166.2" r="4" fill="#F5C542"/><text x="355.1" y="157.2" text-anchor="middle" font-family="Arial" font-size="10" fill="#3B2F14">84</text><circle cx="367.0" cy="276.7" r="4" fill="#F5C542"/><text x="367.0" y="267.7" text-anchor="middle" font-family="Arial" font-size="10" fill="#3B2F14">75</text><circle cx="289.6" cy="332.2" r="4" fill="#F5C542"/><text x="289.6" y="323.2" text-anchor="middle" font-family="Arial" font-size="10" fill="#3B2F14">57</text><circle cx="216.0" cy="320.6" r="4" fill="#F5C542"/><text x="216.0" y="311.6" text-anchor="middle" font-family="Arial" font-size="10" fill="#3B2F14">49</text><circle cx="206.3" cy="260.0" r="4" fill="#F5C542"/><text x="206.3" y="251.0" text-anchor="middle" font-family="Arial" font-size="10" fill="#3B2F14">28</text><circle cx="230.0" cy="234.0" r="4" fill="#F5C542"/><text x="230.0" y="225.0" text-anchor="middle" font-family="Arial" font-size="10" fill="#3B2F14">16</text><text x="250.0" y="60.0" text-anchor="middle" dominant-baseline="middle" font-family="Arial" font-size="13" fill="#3B2F14">TypeScript</text><text x="398.5" y="131.5" text-anchor="start" dominant-baseline="middle" font-family="Arial" font-size="13" fill="#3B2F14">JavaScript</text><text x="435.2" y="292.3" text-anchor="start" dominant-baseline="middle" font-family="Arial" font-size="13" fill="#3B2F14">Java</text><text x="332.4" y="421.2" text-anchor="start" dominant-baseline="middle" font-family="Arial" font-size="13" fill="#3B2F14">Python</text><text x="167.6" y="421.2" text-anchor="end" dominant-baseline="middle" font-family="Arial" font-size="13" fill="#3B2F14">CSS</text><text x="64.8" y="292.3" text-anchor="end" dominant-baseline="middle" font-family="Arial" font-size="13" fill="#3B2F14">HTML</text><text x="101.5" y="131.5" text-anchor="end" dominant-baseline="middle" font-family="Arial" font-size="13" fill="#3B2F14">SCSS</text></svg>