<svg xmlns="http://www.w3.org/2000/svg" width="500" height="500"><rect width="500" height="500" rx="18" fill="#1A160B"/><text x="250" y="30" text-anchor="middle" font-family="Arial" font-size="18" font-weight="700" fill="#FFF7D6">Skill Radar</text><polygon points="250.0,218.0 275.0,230.0 281.2,257.1 263.9,278.8 236.1,278.8 218.8,257.1 225.0,230.0" fill="none" stroke="#8A7A5A" stroke-opacity=".45"/><polygon points="250.0,186.0 300.0,210.1 312.4,264.2 277.8,307.7 222.2,307.7 187.6,264.2 200.0,210.1" fill="none" stroke="#8A7A5A" stroke-opacity=".45"/><polygon points="250.0,154.0 325.1,190.1 343.6,271.4 291.7,336.5 208.3,336.5 156.4,271.4 174.9,190.1" fill="none" stroke="#8A7A5A" stroke-opacity=".45"/><polygon points="250.0,122.0 350.1,170.2 374.8,278.5 305.5,365.3 194.5,365.3 125.2,278.5 149.9,170.2" fill="none" stroke="#8A7A5A" stroke-opacity=".45"/><polygon points="250.0,90.0 375.1,150.2 406.0,285.6 319.4,394.2 180.6,394.2 94.0,285.6 124.9,150.2" fill="none" stroke="#8A7A5A" stroke-opacity=".45"/><line x1="250" y1="250" x2="250.0" y2="90.0" stroke="#8A7A5A" stroke-opacity=".5"/><line x1="250" y1="250" x2="375.1" y2="150.2" stroke="#8A7A5A" stroke-opacity=".5"/><line x1="250" y1="250" x2="406.0" y2="285.6" stroke="#8A7A5A" stroke-opacity=".5"/><line x1="250" y1="250" x2="319.4" y2="394.2" stroke="#8A7A5A" stroke-opacity=".5"/><line x1="250" y1="250" x2="180.6" y2="394.2" stroke="#8A7A5A" stroke-opacity=".5"/><line x1="250" y1="250" x2="94.0" y2="285.6" stroke="#8A7A5A" stroke-opacity=".5"/><line x1="250" y1="250" x2="124.9" y2="150.2" stroke="#8A7A5A" stroke-opacity=".5"/><polygon points="250.0,109.2 352.6,168.2 381.0,279.9 300.0,353.8 195.9,362.4 137.7,275.6 152.4,172.2" fill="#F5C542" fill-opacity=".18" stroke="#F5C542" stroke-width="2"/><circle cx="250.0" cy="109.2" r="4" fill="#F5C542"/><text x="250.0" y="100.2" text-anchor="middle" font-family="Arial" font-size="10" fill="#FFF7D6">88</text><circle cx="352.6" cy="168.2" r="4" fill="#F5C542"/><text x="352.6" y="159.2" text-anchor="middle" font-family="Arial" font-size="10" fill="#FFF7D6">82</text><circle cx="381.0" cy="279.9" r="4" fill="#F5C542"/><text x="381.0" y="270.9" text-anchor="middle" font-family="Arial" font-size="10" fill="#FFF7D6">84</text><circle cx="300.0" cy="353.8" r="4" fill="#F5C542"/><text x="300.0" y="344.8" text-anchor="middle" font-family="Arial" font-size="10" fill="#FFF7D6">72</text><circle cx="195.9" cy="362.4" r="4" fill="#F5C542"/><text x="195.9" y="353.4" text-anchor="middle" font-family="Arial" font-size="10" fill="#FFF7D6">78</text><circle cx="137.7" cy="275.6" r="4" fill="#F5C542"/><text x="137.7" y="266.6" text-anchor="middle" font-family="Arial" font-size="10" fill="#FFF7D6">72</text><circle cx="152.4" cy="172.2" r="4" fill="#F5C542"/><text x="152.4" y="163.2" text-anchor="middle" font-family="Arial" font-size="10" fill="#FFF7D6">78</text><text x="250.0" y="60.0" text-anchor="middle" dominant-baseline="middle" font-family="Arial" font-size="13" fill="#FFF7D6">Java</text><text x="398.5" y="131.5" text-anchor="start" dominant-baseline="middle" font-family="Arial" font-size="13" fill="#FFF7D6">JavaScript</text><text x="435.2" y="292.3" text-anchor="start" dominant-baseline="middle" font-family="Arial" font-size="13" fill="#FFF7D6">React / Next.js</text><text x="332.4" y="421.2" text-anchor="start" dominant-baseline="middle" font-family="Arial" font-size="13" fill="#FFF7D6">Spring Boot</text><text x="167.6" y="421.2" text-anchor="end" dominant-baseline="middle" font-family="Arial" font-size="13" fill="#FFF7D6">Databases</text><text x="64.8" y="292.3" text-anchor="end" dominant-baseline="middle" font-family="Arial" font-size="13" fill="#FFF7D6">AI / RAG</text><text x="101.5" y="131.5" text-anchor="end" dominant-baseline="middle" font-family="Arial" font-size="13" fill="#FFF7D6">DSA</text></svg>